<mxfile host="app.diagrams.net" modified="2023-10-15T13:37:33.699Z" agent="Mozilla/5.0 (Windows NT 10.0; Win64; x64) AppleWebKit/537.36 (KHTML, like Gecko) Chrome/118.0.0.0 Safari/537.36" etag="CFV3yy8Bukxa8D-KmJRA" version="22.0.4" type="github">
  <diagram name="Страница — 1" id="V0oi9WV7IM5Q5waw9qZC">
    <mxGraphModel dx="1827" dy="509" grid="1" gridSize="10" guides="1" tooltips="1" connect="1" arrows="1" fold="1" page="1" pageScale="1" pageWidth="827" pageHeight="1169" math="0" shadow="0">
      <root>
        <mxCell id="0" />
        <mxCell id="1" parent="0" />
        <mxCell id="geDYfR0hiI_9eGKjTUSW-10" value="" style="group" vertex="1" connectable="0" parent="1">
          <mxGeometry x="60" y="90" width="120" height="80" as="geometry" />
        </mxCell>
        <mxCell id="geDYfR0hiI_9eGKjTUSW-3" value="" style="rounded=0;whiteSpace=wrap;html=1;" vertex="1" parent="geDYfR0hiI_9eGKjTUSW-10">
          <mxGeometry width="120" height="80" as="geometry" />
        </mxCell>
        <mxCell id="geDYfR0hiI_9eGKjTUSW-4" value="" style="endArrow=none;html=1;rounded=0;entryX=1;entryY=0.75;entryDx=0;entryDy=0;" edge="1" parent="geDYfR0hiI_9eGKjTUSW-10" target="geDYfR0hiI_9eGKjTUSW-3">
          <mxGeometry width="50" height="50" relative="1" as="geometry">
            <mxPoint y="60" as="sourcePoint" />
            <mxPoint x="50" y="10" as="targetPoint" />
          </mxGeometry>
        </mxCell>
        <mxCell id="geDYfR0hiI_9eGKjTUSW-5" value="" style="endArrow=none;html=1;rounded=0;" edge="1" parent="geDYfR0hiI_9eGKjTUSW-10">
          <mxGeometry width="50" height="50" relative="1" as="geometry">
            <mxPoint x="60" y="80" as="sourcePoint" />
            <mxPoint x="60" y="60" as="targetPoint" />
          </mxGeometry>
        </mxCell>
        <mxCell id="geDYfR0hiI_9eGKjTUSW-6" value="" style="endArrow=none;html=1;rounded=0;entryX=0.081;entryY=-0.002;entryDx=0;entryDy=0;entryPerimeter=0;" edge="1" parent="geDYfR0hiI_9eGKjTUSW-10" target="geDYfR0hiI_9eGKjTUSW-3">
          <mxGeometry width="50" height="50" relative="1" as="geometry">
            <mxPoint y="10" as="sourcePoint" />
            <mxPoint x="50" y="-40" as="targetPoint" />
          </mxGeometry>
        </mxCell>
        <mxCell id="geDYfR0hiI_9eGKjTUSW-7" value="0р." style="text;html=1;strokeColor=none;fillColor=none;align=center;verticalAlign=middle;whiteSpace=wrap;rounded=0;" vertex="1" parent="geDYfR0hiI_9eGKjTUSW-10">
          <mxGeometry width="30" height="10" as="geometry" />
        </mxCell>
        <mxCell id="geDYfR0hiI_9eGKjTUSW-8" value="А 1.1.1" style="text;html=1;strokeColor=none;fillColor=none;align=center;verticalAlign=middle;whiteSpace=wrap;rounded=0;" vertex="1" parent="geDYfR0hiI_9eGKjTUSW-10">
          <mxGeometry y="60" width="60" height="20" as="geometry" />
        </mxCell>
        <mxCell id="geDYfR0hiI_9eGKjTUSW-9" value="Анализ требований" style="text;html=1;strokeColor=none;fillColor=none;align=center;verticalAlign=middle;whiteSpace=wrap;rounded=0;" vertex="1" parent="geDYfR0hiI_9eGKjTUSW-10">
          <mxGeometry y="10" width="120" height="50" as="geometry" />
        </mxCell>
        <mxCell id="geDYfR0hiI_9eGKjTUSW-17" value="" style="endArrow=classic;html=1;rounded=0;entryX=0;entryY=0.5;entryDx=0;entryDy=0;" edge="1" parent="1" target="geDYfR0hiI_9eGKjTUSW-14">
          <mxGeometry width="50" height="50" relative="1" as="geometry">
            <mxPoint x="180" y="130" as="sourcePoint" />
            <mxPoint x="230" y="80" as="targetPoint" />
          </mxGeometry>
        </mxCell>
        <mxCell id="geDYfR0hiI_9eGKjTUSW-18" value="" style="group" vertex="1" connectable="0" parent="1">
          <mxGeometry x="230" y="110" width="50" height="40" as="geometry" />
        </mxCell>
        <mxCell id="geDYfR0hiI_9eGKjTUSW-14" value="" style="rounded=0;whiteSpace=wrap;html=1;" vertex="1" parent="geDYfR0hiI_9eGKjTUSW-18">
          <mxGeometry width="50" height="40" as="geometry" />
        </mxCell>
        <mxCell id="geDYfR0hiI_9eGKjTUSW-15" value="" style="endArrow=none;html=1;rounded=0;entryX=0.25;entryY=0;entryDx=0;entryDy=0;exitX=0.25;exitY=1;exitDx=0;exitDy=0;" edge="1" parent="geDYfR0hiI_9eGKjTUSW-18" source="geDYfR0hiI_9eGKjTUSW-14" target="geDYfR0hiI_9eGKjTUSW-14">
          <mxGeometry width="50" height="50" relative="1" as="geometry">
            <mxPoint x="10" y="40" as="sourcePoint" />
            <mxPoint x="20" y="10" as="targetPoint" />
          </mxGeometry>
        </mxCell>
        <mxCell id="geDYfR0hiI_9eGKjTUSW-16" value="&lt;font style=&quot;font-size: 14px;&quot;&gt;&lt;b&gt;О&lt;/b&gt;&lt;/font&gt;" style="text;html=1;strokeColor=none;fillColor=none;align=center;verticalAlign=middle;whiteSpace=wrap;rounded=0;" vertex="1" parent="geDYfR0hiI_9eGKjTUSW-18">
          <mxGeometry x="10" y="5" width="30" height="30" as="geometry" />
        </mxCell>
        <mxCell id="geDYfR0hiI_9eGKjTUSW-61" value="" style="endArrow=none;html=1;rounded=0;entryX=0.75;entryY=0;entryDx=0;entryDy=0;exitX=0.75;exitY=1;exitDx=0;exitDy=0;" edge="1" parent="geDYfR0hiI_9eGKjTUSW-18" source="geDYfR0hiI_9eGKjTUSW-14" target="geDYfR0hiI_9eGKjTUSW-14">
          <mxGeometry width="50" height="50" relative="1" as="geometry">
            <mxPoint x="40" y="40" as="sourcePoint" />
            <mxPoint x="90" y="-10" as="targetPoint" />
          </mxGeometry>
        </mxCell>
        <mxCell id="geDYfR0hiI_9eGKjTUSW-19" value="" style="group" vertex="1" connectable="0" parent="1">
          <mxGeometry x="340" y="30" width="120" height="80" as="geometry" />
        </mxCell>
        <mxCell id="geDYfR0hiI_9eGKjTUSW-20" value="" style="rounded=0;whiteSpace=wrap;html=1;" vertex="1" parent="geDYfR0hiI_9eGKjTUSW-19">
          <mxGeometry width="120" height="80" as="geometry" />
        </mxCell>
        <mxCell id="geDYfR0hiI_9eGKjTUSW-21" value="" style="endArrow=none;html=1;rounded=0;entryX=1;entryY=0.75;entryDx=0;entryDy=0;" edge="1" parent="geDYfR0hiI_9eGKjTUSW-19" target="geDYfR0hiI_9eGKjTUSW-20">
          <mxGeometry width="50" height="50" relative="1" as="geometry">
            <mxPoint y="60" as="sourcePoint" />
            <mxPoint x="50" y="10" as="targetPoint" />
          </mxGeometry>
        </mxCell>
        <mxCell id="geDYfR0hiI_9eGKjTUSW-22" value="" style="endArrow=none;html=1;rounded=0;" edge="1" parent="geDYfR0hiI_9eGKjTUSW-19">
          <mxGeometry width="50" height="50" relative="1" as="geometry">
            <mxPoint x="60" y="80" as="sourcePoint" />
            <mxPoint x="60" y="60" as="targetPoint" />
          </mxGeometry>
        </mxCell>
        <mxCell id="geDYfR0hiI_9eGKjTUSW-23" value="" style="endArrow=none;html=1;rounded=0;entryX=0.081;entryY=-0.002;entryDx=0;entryDy=0;entryPerimeter=0;" edge="1" parent="geDYfR0hiI_9eGKjTUSW-19" target="geDYfR0hiI_9eGKjTUSW-20">
          <mxGeometry width="50" height="50" relative="1" as="geometry">
            <mxPoint y="10" as="sourcePoint" />
            <mxPoint x="50" y="-40" as="targetPoint" />
          </mxGeometry>
        </mxCell>
        <mxCell id="geDYfR0hiI_9eGKjTUSW-24" value="0р." style="text;html=1;strokeColor=none;fillColor=none;align=center;verticalAlign=middle;whiteSpace=wrap;rounded=0;" vertex="1" parent="geDYfR0hiI_9eGKjTUSW-19">
          <mxGeometry width="30" height="10" as="geometry" />
        </mxCell>
        <mxCell id="geDYfR0hiI_9eGKjTUSW-25" value="А 1.1.1" style="text;html=1;strokeColor=none;fillColor=none;align=center;verticalAlign=middle;whiteSpace=wrap;rounded=0;" vertex="1" parent="geDYfR0hiI_9eGKjTUSW-19">
          <mxGeometry y="60" width="60" height="20" as="geometry" />
        </mxCell>
        <mxCell id="geDYfR0hiI_9eGKjTUSW-26" value="Сбор и документирование требований" style="text;html=1;strokeColor=none;fillColor=none;align=center;verticalAlign=middle;whiteSpace=wrap;rounded=0;" vertex="1" parent="geDYfR0hiI_9eGKjTUSW-19">
          <mxGeometry y="10" width="120" height="50" as="geometry" />
        </mxCell>
        <mxCell id="geDYfR0hiI_9eGKjTUSW-27" value="" style="group" vertex="1" connectable="0" parent="1">
          <mxGeometry x="340" y="150" width="120" height="80" as="geometry" />
        </mxCell>
        <mxCell id="geDYfR0hiI_9eGKjTUSW-28" value="" style="rounded=0;whiteSpace=wrap;html=1;" vertex="1" parent="geDYfR0hiI_9eGKjTUSW-27">
          <mxGeometry width="120" height="80" as="geometry" />
        </mxCell>
        <mxCell id="geDYfR0hiI_9eGKjTUSW-29" value="" style="endArrow=none;html=1;rounded=0;entryX=1;entryY=0.75;entryDx=0;entryDy=0;" edge="1" parent="geDYfR0hiI_9eGKjTUSW-27" target="geDYfR0hiI_9eGKjTUSW-28">
          <mxGeometry width="50" height="50" relative="1" as="geometry">
            <mxPoint y="60" as="sourcePoint" />
            <mxPoint x="50" y="10" as="targetPoint" />
          </mxGeometry>
        </mxCell>
        <mxCell id="geDYfR0hiI_9eGKjTUSW-30" value="" style="endArrow=none;html=1;rounded=0;" edge="1" parent="geDYfR0hiI_9eGKjTUSW-27">
          <mxGeometry width="50" height="50" relative="1" as="geometry">
            <mxPoint x="60" y="80" as="sourcePoint" />
            <mxPoint x="60" y="60" as="targetPoint" />
          </mxGeometry>
        </mxCell>
        <mxCell id="geDYfR0hiI_9eGKjTUSW-31" value="" style="endArrow=none;html=1;rounded=0;entryX=0.081;entryY=-0.002;entryDx=0;entryDy=0;entryPerimeter=0;" edge="1" parent="geDYfR0hiI_9eGKjTUSW-27" target="geDYfR0hiI_9eGKjTUSW-28">
          <mxGeometry width="50" height="50" relative="1" as="geometry">
            <mxPoint y="10" as="sourcePoint" />
            <mxPoint x="50" y="-40" as="targetPoint" />
          </mxGeometry>
        </mxCell>
        <mxCell id="geDYfR0hiI_9eGKjTUSW-32" value="0р." style="text;html=1;strokeColor=none;fillColor=none;align=center;verticalAlign=middle;whiteSpace=wrap;rounded=0;" vertex="1" parent="geDYfR0hiI_9eGKjTUSW-27">
          <mxGeometry width="30" height="10" as="geometry" />
        </mxCell>
        <mxCell id="geDYfR0hiI_9eGKjTUSW-33" value="А 1.1.1" style="text;html=1;strokeColor=none;fillColor=none;align=center;verticalAlign=middle;whiteSpace=wrap;rounded=0;" vertex="1" parent="geDYfR0hiI_9eGKjTUSW-27">
          <mxGeometry y="60" width="60" height="20" as="geometry" />
        </mxCell>
        <mxCell id="geDYfR0hiI_9eGKjTUSW-34" value="Анализ требований на пригодность" style="text;html=1;strokeColor=none;fillColor=none;align=center;verticalAlign=middle;whiteSpace=wrap;rounded=0;" vertex="1" parent="geDYfR0hiI_9eGKjTUSW-27">
          <mxGeometry y="10" width="120" height="50" as="geometry" />
        </mxCell>
        <mxCell id="geDYfR0hiI_9eGKjTUSW-45" value="" style="group" vertex="1" connectable="0" parent="1">
          <mxGeometry x="310" y="370" width="120" height="80" as="geometry" />
        </mxCell>
        <mxCell id="geDYfR0hiI_9eGKjTUSW-46" value="" style="rounded=0;whiteSpace=wrap;html=1;" vertex="1" parent="geDYfR0hiI_9eGKjTUSW-45">
          <mxGeometry width="120" height="80" as="geometry" />
        </mxCell>
        <mxCell id="geDYfR0hiI_9eGKjTUSW-47" value="" style="endArrow=none;html=1;rounded=0;entryX=1;entryY=0.75;entryDx=0;entryDy=0;" edge="1" parent="geDYfR0hiI_9eGKjTUSW-45" target="geDYfR0hiI_9eGKjTUSW-46">
          <mxGeometry width="50" height="50" relative="1" as="geometry">
            <mxPoint y="60" as="sourcePoint" />
            <mxPoint x="50" y="10" as="targetPoint" />
          </mxGeometry>
        </mxCell>
        <mxCell id="geDYfR0hiI_9eGKjTUSW-48" value="" style="endArrow=none;html=1;rounded=0;" edge="1" parent="geDYfR0hiI_9eGKjTUSW-45">
          <mxGeometry width="50" height="50" relative="1" as="geometry">
            <mxPoint x="60" y="80" as="sourcePoint" />
            <mxPoint x="60" y="60" as="targetPoint" />
          </mxGeometry>
        </mxCell>
        <mxCell id="geDYfR0hiI_9eGKjTUSW-49" value="" style="endArrow=none;html=1;rounded=0;entryX=0.081;entryY=-0.002;entryDx=0;entryDy=0;entryPerimeter=0;" edge="1" parent="geDYfR0hiI_9eGKjTUSW-45" target="geDYfR0hiI_9eGKjTUSW-46">
          <mxGeometry width="50" height="50" relative="1" as="geometry">
            <mxPoint y="10" as="sourcePoint" />
            <mxPoint x="50" y="-40" as="targetPoint" />
          </mxGeometry>
        </mxCell>
        <mxCell id="geDYfR0hiI_9eGKjTUSW-50" value="0р." style="text;html=1;strokeColor=none;fillColor=none;align=center;verticalAlign=middle;whiteSpace=wrap;rounded=0;" vertex="1" parent="geDYfR0hiI_9eGKjTUSW-45">
          <mxGeometry width="30" height="10" as="geometry" />
        </mxCell>
        <mxCell id="geDYfR0hiI_9eGKjTUSW-51" value="А 1.1.1" style="text;html=1;strokeColor=none;fillColor=none;align=center;verticalAlign=middle;whiteSpace=wrap;rounded=0;" vertex="1" parent="geDYfR0hiI_9eGKjTUSW-45">
          <mxGeometry y="60" width="60" height="20" as="geometry" />
        </mxCell>
        <mxCell id="geDYfR0hiI_9eGKjTUSW-52" value="Разработка первого релиза" style="text;html=1;strokeColor=none;fillColor=none;align=center;verticalAlign=middle;whiteSpace=wrap;rounded=0;" vertex="1" parent="geDYfR0hiI_9eGKjTUSW-45">
          <mxGeometry y="10" width="120" height="50" as="geometry" />
        </mxCell>
        <mxCell id="geDYfR0hiI_9eGKjTUSW-53" value="" style="group" vertex="1" connectable="0" parent="1">
          <mxGeometry x="620" y="30" width="120" height="80" as="geometry" />
        </mxCell>
        <mxCell id="geDYfR0hiI_9eGKjTUSW-54" value="" style="rounded=0;whiteSpace=wrap;html=1;" vertex="1" parent="geDYfR0hiI_9eGKjTUSW-53">
          <mxGeometry width="120" height="80" as="geometry" />
        </mxCell>
        <mxCell id="geDYfR0hiI_9eGKjTUSW-55" value="" style="endArrow=none;html=1;rounded=0;entryX=1;entryY=0.75;entryDx=0;entryDy=0;" edge="1" parent="geDYfR0hiI_9eGKjTUSW-53" target="geDYfR0hiI_9eGKjTUSW-54">
          <mxGeometry width="50" height="50" relative="1" as="geometry">
            <mxPoint y="60" as="sourcePoint" />
            <mxPoint x="50" y="10" as="targetPoint" />
          </mxGeometry>
        </mxCell>
        <mxCell id="geDYfR0hiI_9eGKjTUSW-56" value="" style="endArrow=none;html=1;rounded=0;" edge="1" parent="geDYfR0hiI_9eGKjTUSW-53">
          <mxGeometry width="50" height="50" relative="1" as="geometry">
            <mxPoint x="60" y="80" as="sourcePoint" />
            <mxPoint x="60" y="60" as="targetPoint" />
          </mxGeometry>
        </mxCell>
        <mxCell id="geDYfR0hiI_9eGKjTUSW-57" value="" style="endArrow=none;html=1;rounded=0;entryX=0.081;entryY=-0.002;entryDx=0;entryDy=0;entryPerimeter=0;" edge="1" parent="geDYfR0hiI_9eGKjTUSW-53" target="geDYfR0hiI_9eGKjTUSW-54">
          <mxGeometry width="50" height="50" relative="1" as="geometry">
            <mxPoint y="10" as="sourcePoint" />
            <mxPoint x="50" y="-40" as="targetPoint" />
          </mxGeometry>
        </mxCell>
        <mxCell id="geDYfR0hiI_9eGKjTUSW-58" value="0р." style="text;html=1;strokeColor=none;fillColor=none;align=center;verticalAlign=middle;whiteSpace=wrap;rounded=0;" vertex="1" parent="geDYfR0hiI_9eGKjTUSW-53">
          <mxGeometry width="30" height="10" as="geometry" />
        </mxCell>
        <mxCell id="geDYfR0hiI_9eGKjTUSW-59" value="А 1.1.1" style="text;html=1;strokeColor=none;fillColor=none;align=center;verticalAlign=middle;whiteSpace=wrap;rounded=0;" vertex="1" parent="geDYfR0hiI_9eGKjTUSW-53">
          <mxGeometry y="60" width="60" height="20" as="geometry" />
        </mxCell>
        <mxCell id="geDYfR0hiI_9eGKjTUSW-60" value="Разработка общей структуры приложения." style="text;html=1;strokeColor=none;fillColor=none;align=center;verticalAlign=middle;whiteSpace=wrap;rounded=0;" vertex="1" parent="geDYfR0hiI_9eGKjTUSW-53">
          <mxGeometry y="10" width="120" height="50" as="geometry" />
        </mxCell>
        <mxCell id="geDYfR0hiI_9eGKjTUSW-62" style="edgeStyle=orthogonalEdgeStyle;rounded=0;orthogonalLoop=1;jettySize=auto;html=1;entryX=0;entryY=0.5;entryDx=0;entryDy=0;" edge="1" parent="1" source="geDYfR0hiI_9eGKjTUSW-14" target="geDYfR0hiI_9eGKjTUSW-26">
          <mxGeometry relative="1" as="geometry" />
        </mxCell>
        <mxCell id="geDYfR0hiI_9eGKjTUSW-63" style="edgeStyle=orthogonalEdgeStyle;rounded=0;orthogonalLoop=1;jettySize=auto;html=1;entryX=0;entryY=0.5;entryDx=0;entryDy=0;" edge="1" parent="1" source="geDYfR0hiI_9eGKjTUSW-14" target="geDYfR0hiI_9eGKjTUSW-34">
          <mxGeometry relative="1" as="geometry" />
        </mxCell>
        <mxCell id="geDYfR0hiI_9eGKjTUSW-65" value="" style="endArrow=classic;html=1;rounded=0;entryX=0;entryY=0.25;entryDx=0;entryDy=0;" edge="1" parent="1" target="geDYfR0hiI_9eGKjTUSW-9">
          <mxGeometry width="50" height="50" relative="1" as="geometry">
            <mxPoint y="113" as="sourcePoint" />
            <mxPoint x="50" y="60" as="targetPoint" />
          </mxGeometry>
        </mxCell>
        <mxCell id="geDYfR0hiI_9eGKjTUSW-66" value="" style="endArrow=classic;html=1;rounded=0;entryX=0.001;entryY=0.779;entryDx=0;entryDy=0;entryPerimeter=0;" edge="1" parent="1" target="geDYfR0hiI_9eGKjTUSW-9">
          <mxGeometry width="50" height="50" relative="1" as="geometry">
            <mxPoint y="140" as="sourcePoint" />
            <mxPoint x="20" y="130" as="targetPoint" />
          </mxGeometry>
        </mxCell>
        <mxCell id="geDYfR0hiI_9eGKjTUSW-72" value="" style="group" vertex="1" connectable="0" parent="1">
          <mxGeometry x="520" y="110" width="50" height="40" as="geometry" />
        </mxCell>
        <mxCell id="geDYfR0hiI_9eGKjTUSW-73" value="" style="rounded=0;whiteSpace=wrap;html=1;" vertex="1" parent="geDYfR0hiI_9eGKjTUSW-72">
          <mxGeometry width="50" height="40" as="geometry" />
        </mxCell>
        <mxCell id="geDYfR0hiI_9eGKjTUSW-74" value="" style="endArrow=none;html=1;rounded=0;entryX=0.25;entryY=0;entryDx=0;entryDy=0;exitX=0.25;exitY=1;exitDx=0;exitDy=0;" edge="1" parent="geDYfR0hiI_9eGKjTUSW-72" source="geDYfR0hiI_9eGKjTUSW-73" target="geDYfR0hiI_9eGKjTUSW-73">
          <mxGeometry width="50" height="50" relative="1" as="geometry">
            <mxPoint x="10" y="40" as="sourcePoint" />
            <mxPoint x="20" y="10" as="targetPoint" />
          </mxGeometry>
        </mxCell>
        <mxCell id="geDYfR0hiI_9eGKjTUSW-75" value="&lt;font style=&quot;font-size: 14px;&quot;&gt;&lt;b&gt;&amp;amp;&lt;/b&gt;&lt;/font&gt;" style="text;html=1;strokeColor=none;fillColor=none;align=center;verticalAlign=middle;whiteSpace=wrap;rounded=0;" vertex="1" parent="geDYfR0hiI_9eGKjTUSW-72">
          <mxGeometry x="10" y="5" width="30" height="30" as="geometry" />
        </mxCell>
        <mxCell id="geDYfR0hiI_9eGKjTUSW-78" style="edgeStyle=orthogonalEdgeStyle;rounded=0;orthogonalLoop=1;jettySize=auto;html=1;exitX=1;exitY=0.5;exitDx=0;exitDy=0;entryX=0;entryY=0.5;entryDx=0;entryDy=0;" edge="1" parent="1" source="geDYfR0hiI_9eGKjTUSW-26" target="geDYfR0hiI_9eGKjTUSW-73">
          <mxGeometry relative="1" as="geometry" />
        </mxCell>
        <mxCell id="geDYfR0hiI_9eGKjTUSW-79" style="edgeStyle=orthogonalEdgeStyle;rounded=0;orthogonalLoop=1;jettySize=auto;html=1;exitX=1;exitY=0.5;exitDx=0;exitDy=0;entryX=0;entryY=0.5;entryDx=0;entryDy=0;" edge="1" parent="1" source="geDYfR0hiI_9eGKjTUSW-34" target="geDYfR0hiI_9eGKjTUSW-73">
          <mxGeometry relative="1" as="geometry" />
        </mxCell>
        <mxCell id="geDYfR0hiI_9eGKjTUSW-80" style="edgeStyle=orthogonalEdgeStyle;rounded=0;orthogonalLoop=1;jettySize=auto;html=1;exitX=1;exitY=0.5;exitDx=0;exitDy=0;entryX=0;entryY=0.5;entryDx=0;entryDy=0;" edge="1" parent="1" source="geDYfR0hiI_9eGKjTUSW-73" target="geDYfR0hiI_9eGKjTUSW-60">
          <mxGeometry relative="1" as="geometry" />
        </mxCell>
      </root>
    </mxGraphModel>
  </diagram>
</mxfile>
